solid OpenSCAD_Model
  facet normal 0 0 -1
    outer loop
      vertex -11.6 -12.6 -0.75
      vertex 11.6 12.6 -0.75
      vertex 11.6 -12.6 -0.75
    endloop
  endfacet
  facet normal -0 0 -1
    outer loop
      vertex 11.6 12.6 -0.75
      vertex -11.6 -12.6 -0.75
      vertex -11.6 12.6 -0.75
    endloop
  endfacet
  facet normal -1 0 0
    outer loop
      vertex -11.6 -12.6 -0.75
      vertex -11.6 12.6 0.75
      vertex -11.6 12.6 -0.75
    endloop
  endfacet
  facet normal -1 -0 0
    outer loop
      vertex -11.6 12.6 0.75
      vertex -11.6 -12.6 -0.75
      vertex -11.6 -12.6 0.75
    endloop
  endfacet
  facet normal 0 0 1
    outer loop
      vertex 11.6 12.6 0.75
      vertex 10.5 11.5 0.75
      vertex 11.6 -12.6 0.75
    endloop
  endfacet
  facet normal 0 0 1
    outer loop
      vertex 11.6 12.6 0.75
      vertex -10.5 11.5 0.75
      vertex 10.5 11.5 0.75
    endloop
  endfacet
  facet normal 0 0 1
    outer loop
      vertex -10.5 11.5 0.75
      vertex -11.6 12.6 0.75
      vertex -10.5 -11.5 0.75
    endloop
  endfacet
  facet normal -0 0 1
    outer loop
      vertex -11.6 12.6 0.75
      vertex -10.5 11.5 0.75
      vertex 11.6 12.6 0.75
    endloop
  endfacet
  facet normal -0 0 1
    outer loop
      vertex 10.5 -11.5 0.75
      vertex 11.6 -12.6 0.75
      vertex 10.5 11.5 0.75
    endloop
  endfacet
  facet normal -0 0 1
    outer loop
      vertex -10.5 -11.5 0.75
      vertex 11.6 -12.6 0.75
      vertex 10.5 -11.5 0.75
    endloop
  endfacet
  facet normal 0 0 1
    outer loop
      vertex -10.5 -11.5 0.75
      vertex -11.6 -12.6 0.75
      vertex 11.6 -12.6 0.75
    endloop
  endfacet
  facet normal 0 0 1
    outer loop
      vertex -11.6 -12.6 0.75
      vertex -10.5 -11.5 0.75
      vertex -11.6 12.6 0.75
    endloop
  endfacet
  facet normal 1 -0 0
    outer loop
      vertex 11.6 -12.6 0.75
      vertex 11.6 12.6 -0.75
      vertex 11.6 12.6 0.75
    endloop
  endfacet
  facet normal 1 0 0
    outer loop
      vertex 11.6 12.6 -0.75
      vertex 11.6 -12.6 0.75
      vertex 11.6 -12.6 -0.75
    endloop
  endfacet
  facet normal 0 -1 0
    outer loop
      vertex -11.6 -12.6 -0.75
      vertex 11.6 -12.6 0.75
      vertex -11.6 -12.6 0.75
    endloop
  endfacet
  facet normal 0 -1 -0
    outer loop
      vertex 11.6 -12.6 0.75
      vertex -11.6 -12.6 -0.75
      vertex 11.6 -12.6 -0.75
    endloop
  endfacet
  facet normal 0 1 -0
    outer loop
      vertex 11.6 12.6 -0.75
      vertex -11.6 12.6 0.75
      vertex 11.6 12.6 0.75
    endloop
  endfacet
  facet normal 0 1 0
    outer loop
      vertex -11.6 12.6 0.75
      vertex 11.6 12.6 -0.75
      vertex -11.6 12.6 -0.75
    endloop
  endfacet
  facet normal -1 0 0
    outer loop
      vertex -10.5 -11.5 0.75
      vertex -10.5 11.5 1.625
      vertex -10.5 11.5 0.75
    endloop
  endfacet
  facet normal -1 -0 0
    outer loop
      vertex -10.5 11.5 1.625
      vertex -10.5 -11.5 0.75
      vertex -10.5 -11.5 1.625
    endloop
  endfacet
  facet normal -0 0 1
    outer loop
      vertex -10.5 11.5 1.625
      vertex 10.5 -11.5 1.625
      vertex 10.5 11.5 1.625
    endloop
  endfacet
  facet normal 0 0 1
    outer loop
      vertex 10.5 -11.5 1.625
      vertex -10.5 11.5 1.625
      vertex -10.5 -11.5 1.625
    endloop
  endfacet
  facet normal 0 1 -0
    outer loop
      vertex 10.5 11.5 0.75
      vertex -10.5 11.5 1.625
      vertex 10.5 11.5 1.625
    endloop
  endfacet
  facet normal 0 1 0
    outer loop
      vertex -10.5 11.5 1.625
      vertex 10.5 11.5 0.75
      vertex -10.5 11.5 0.75
    endloop
  endfacet
  facet normal 1 -0 0
    outer loop
      vertex 10.5 -11.5 1.625
      vertex 10.5 11.5 0.75
      vertex 10.5 11.5 1.625
    endloop
  endfacet
  facet normal 1 0 0
    outer loop
      vertex 10.5 11.5 0.75
      vertex 10.5 -11.5 1.625
      vertex 10.5 -11.5 0.75
    endloop
  endfacet
  facet normal 0 -1 0
    outer loop
      vertex -10.5 -11.5 0.75
      vertex 10.5 -11.5 1.625
      vertex -10.5 -11.5 1.625
    endloop
  endfacet
  facet normal 0 -1 -0
    outer loop
      vertex 10.5 -11.5 1.625
      vertex -10.5 -11.5 0.75
      vertex 10.5 -11.5 0.75
    endloop
  endfacet
endsolid OpenSCAD_Model
